<svg width="128" height="128" viewBox="0 0 128 128" fill="none" xmlns="http://www.w3.org/2000/svg">
  <!-- Shield outline -->
  <path d="M64 8L20 26V58C20 88 64 120 64 120S108 88 108 58V26L64 8Z" stroke="#17B37E" stroke-width="4"/>
  
  <!-- Shield inner highlight -->
  <path d="M64 14L26 30V58C26 84 64 112 64 112S102 84 102 58V30L64 14Z" fill="#00A4C6" opacity="0.3"/>
  
  <!-- Lock body -->
  <rect x="48" y="56" width="32" height="26" rx="4" fill="#17B37E"/>
  
  <!-- Lock shackle -->
  <path d="M54 56V48C54 42.5 58.5 38 64 38C69.5 38 74 42.5 74 48V56" stroke="#17B37E" stroke-width="4" fill="none" stroke-linecap="round"/>
  
  <!-- Lock keyhole -->
  <circle cx="64" cy="67" r="4" fill="#0D2B52"/>
  <rect x="62" y="67" width="4" height="8" fill="#0D2B52"/>
</svg>
