<svg width="128" height="128" viewBox="0 0 128 128" fill="none" xmlns="http://www.w3.org/2000/svg">
  <defs>
    <linearGradient id="recordGradient" x1="0%" y1="0%" x2="100%" y2="100%">
      <stop offset="0%" style="stop-color:#17B37E;stop-opacity:1" />
      <stop offset="100%" style="stop-color:#059669;stop-opacity:1" />
    </linearGradient>
  </defs>
  
  <!-- Background Circle -->
  <circle cx="64" cy="64" r="60" fill="url(#recordGradient)" opacity="0.1"/>
  
  <!-- Document Stack -->
  <rect x="40" y="16" width="56" height="72" rx="6" fill="white" stroke="url(#recordGradient)" stroke-width="2" opacity="0.3"/>
  <rect x="36" y="20" width="56" height="72" rx="6" fill="white" stroke="url(#recordGradient)" stroke-width="2" opacity="0.6"/>
  <rect x="32" y="24" width="56" height="72" rx="6" fill="white" stroke="url(#recordGradient)" stroke-width="3"/>
  
  <!-- Document Lines -->
  <line x1="44" y1="40" x2="76" y2="40" stroke="#374151" stroke-width="2"/>
  <line x1="44" y1="50" x2="68" y2="50" stroke="#374151" stroke-width="2"/>
  <line x1="44" y1="60" x2="72" y2="60" stroke="#374151" stroke-width="2"/>
  <line x1="44" y1="70" x2="64" y2="70" stroke="#374151" stroke-width="2"/>
  
  <!-- Search/Question Icon -->
  <g transform="translate(65, 64)">
    <circle cx="16" cy="16" r="12" fill="none" stroke="url(#recordGradient)" stroke-width="3"/>
    <path d="m24 24 8 8" stroke="url(#recordGradient)" stroke-width="3" stroke-linecap="round"/>
    <!-- Question Mark -->
    <path d="M12 12 C12 10 14 8 16 8 C18 8 20 10 20 12 C20 14 16 15 16 18" stroke="url(#recordGradient)" stroke-width="2" fill="none" stroke-linecap="round"/>
    <circle cx="16" cy="22" r="1" fill="url(#recordGradient)"/>
  </g>
  
</svg>
